<svg width="24" height="24" viewBox="0 0 24 24" fill="none" xmlns="http://www.w3.org/2000/svg">
<path d="M11.625 0C18.0469 0 23.25 5.20312 23.25 11.625C23.25 18.0469 18.0469 23.25 11.625 23.25C5.20312 23.25 0 18.0469 0 11.625C0 5.20312 5.20312 0 11.625 0ZM11.625 21C16.7812 21 21 16.8281 21 11.625C21 6.46875 16.7812 2.25 11.625 2.25C6.42188 2.25 2.25 6.46875 2.25 11.625C2.25 16.8281 6.42188 21 11.625 21ZM14.4844 16.125L10.5 13.2188C10.3594 13.125 10.3125 12.9375 10.3125 12.7969V5.0625C10.3125 4.78125 10.5469 4.5 10.875 4.5H12.375C12.6562 4.5 12.9375 4.78125 12.9375 5.0625V11.7188L16.0312 14.0156C16.3125 14.2031 16.3594 14.5312 16.1719 14.8125L15.2812 15.9844C15.0938 16.2656 14.7656 16.3125 14.4844 16.125Z" fill="#252641" fill-opacity="0.4"/>
</svg>
