<svg width="54" height="54" viewBox="0 0 54 54" fill="none" xmlns="http://www.w3.org/2000/svg">
<path d="M27 4.5C14.58 4.5 4.5 14.58 4.5 27C4.5 39.42 14.58 49.5 27 49.5C39.42 49.5 49.5 39.42 49.5 27C49.5 14.58 39.42 4.5 27 4.5ZM34.875 28.6875H23.1975L27.0675 32.5575C27.72 33.21 27.72 34.29 27.0675 34.9425C26.73 35.28 26.3025 35.4375 25.875 35.4375C25.4475 35.4375 25.02 35.28 24.6825 34.9425L17.9325 28.1925C17.28 27.54 17.28 26.46 17.9325 25.8075L24.6825 19.0575C25.335 18.405 26.415 18.405 27.0675 19.0575C27.72 19.71 27.72 20.79 27.0675 21.4425L23.1975 25.3125H34.875C35.7975 25.3125 36.5625 26.0775 36.5625 27C36.5625 27.9225 35.7975 28.6875 34.875 28.6875Z" fill="#23BDEE"/>
</svg>
