<svg width="54" height="54" viewBox="0 0 54 54" fill="none" xmlns="http://www.w3.org/2000/svg">
<path d="M27 4.5C14.58 4.5 4.5 14.58 4.5 27C4.5 39.42 14.58 49.5 27 49.5C39.42 49.5 49.5 39.42 49.5 27C49.5 14.58 39.42 4.5 27 4.5ZM36.0675 28.1925L29.3175 34.9425C28.98 35.28 28.5525 35.4375 28.125 35.4375C27.6975 35.4375 27.27 35.28 26.9325 34.9425C26.28 34.29 26.28 33.21 26.9325 32.5575L30.8025 28.6875H19.125C18.2025 28.6875 17.4375 27.9225 17.4375 27C17.4375 26.0775 18.2025 25.3125 19.125 25.3125H30.8025L26.9325 21.4425C26.28 20.79 26.28 19.71 26.9325 19.0575C27.585 18.405 28.665 18.405 29.3175 19.0575L36.0675 25.8075C36.72 26.46 36.72 27.54 36.0675 28.1925Z" fill="#23BDEE"/>
</svg>
