<svg width="24" height="24" viewBox="0 0 24 24" fill="none" xmlns="http://www.w3.org/2000/svg">
<g clip-path="url(#clip0_17_192)">
<mask id="mask0_17_192" style="mask-type:luminance" maskUnits="userSpaceOnUse" x="0" y="0" width="24" height="24">
<path d="M24 0H0V24H24V0Z" fill="white"/>
<path d="M23.25 0.75V23.25H0.75V0.75H23.25Z" stroke="white" stroke-width="1.5"/>
</mask>
<g mask="url(#mask0_17_192)">
<path d="M3.5 18V7C3.5 3 4.5 2 8.5 2H15.5C19.5 2 20.5 3 20.5 7V17C20.5 17.14 20.5 17.28 20.49 17.42" stroke="#252641" stroke-opacity="0.4" stroke-width="1.5" stroke-linecap="round" stroke-linejoin="round"/>
<path d="M6.35 15H20.5V18.5C20.5 20.43 18.93 22 17 22H7C5.07 22 3.5 20.43 3.5 18.5V17.85C3.5 16.28 4.78 15 6.35 15Z" stroke="#252641" stroke-opacity="0.4" stroke-width="1.5" stroke-linecap="round" stroke-linejoin="round"/>
<path d="M8 7H16" stroke="#252641" stroke-opacity="0.4" stroke-width="1.5" stroke-linecap="round" stroke-linejoin="round"/>
<path d="M8 10.5H13" stroke="#252641" stroke-opacity="0.4" stroke-width="1.5" stroke-linecap="round" stroke-linejoin="round"/>
</g>
</g>
<defs>
<clipPath id="clip0_17_192">
<rect width="24" height="24" fill="white"/>
</clipPath>
</defs>
</svg>
