<svg width="153" height="40" viewBox="0 0 153 40" fill="none" xmlns="http://www.w3.org/2000/svg">
<path d="M35.5625 15L20 23.2998L4.43652 15L20 6.69922L35.5625 15Z" stroke="#00FFF0" stroke-width="3" stroke-linecap="round" stroke-linejoin="round"/>
<mask id="path-2-inside-1_12_960" fill="white">
<path d="M29.375 37.5V20L20 15"/>
</mask>
<path d="M26.375 37.5C26.375 39.1569 27.7181 40.5 29.375 40.5C31.0319 40.5 32.375 39.1569 32.375 37.5H29.375H26.375ZM29.375 20H32.375C32.375 18.8921 31.7644 17.8743 30.7868 17.3529L29.375 20ZM21.4118 12.3529C19.9498 11.5732 18.1326 12.1263 17.3529 13.5882C16.5732 15.0502 17.1263 16.8674 18.5882 17.6471L20 15L21.4118 12.3529ZM29.375 37.5H32.375V20H29.375H26.375V37.5H29.375ZM29.375 20L30.7868 17.3529L21.4118 12.3529L20 15L18.5882 17.6471L27.9632 22.6471L29.375 20Z" fill="#00FFF0" mask="url(#path-2-inside-1_12_960)"/>
<mask id="path-4-inside-2_12_960" fill="white">
<path d="M34.375 17.3333V25.8522C34.3755 26.1218 34.2884 26.3844 34.1266 26.6001C33.074 28.0008 28.6333 33.125 20 33.125C11.3667 33.125 6.92597 28.0008 5.87336 26.6001C5.71165 26.3844 5.62449 26.1218 5.625 25.8522V17.3333"/>
</mask>
<path d="M37.375 17.3333C37.375 15.6765 36.0319 14.3333 34.375 14.3333C32.7181 14.3333 31.375 15.6765 31.375 17.3333H34.375H37.375ZM34.375 25.8522H31.375L31.375 25.8579L34.375 25.8522ZM34.1266 26.6001L36.5249 28.4024L36.5273 28.3992L34.1266 26.6001ZM5.87336 26.6001L3.47266 28.3992L3.47509 28.4024L5.87336 26.6001ZM5.625 25.8522L8.625 25.8579V25.8522H5.625ZM8.625 17.3333C8.625 15.6765 7.28186 14.3333 5.625 14.3333C3.96815 14.3333 2.625 15.6765 2.625 17.3333H5.625H8.625ZM34.375 17.3333H31.375V25.8522H34.375H37.375V17.3333H34.375ZM34.375 25.8522L31.375 25.8579C31.3743 25.4769 31.4974 25.106 31.7259 24.8011L34.1266 26.6001L36.5273 28.3992C37.0793 27.6627 37.3768 26.7668 37.375 25.8464L34.375 25.8522ZM34.1266 26.6001L31.7284 24.7978C30.9565 25.8249 27.2986 30.125 20 30.125V33.125V36.125C29.968 36.125 35.1915 30.1767 36.5249 28.4024L34.1266 26.6001ZM20 33.125V30.125C12.7015 30.125 9.04346 25.8249 8.27164 24.7978L5.87336 26.6001L3.47509 28.4024C4.80848 30.1767 10.032 36.125 20 36.125V33.125ZM5.87336 26.6001L8.27407 24.8011C8.50256 25.106 8.62573 25.4769 8.625 25.8579L5.625 25.8522L2.62501 25.8464C2.62324 26.7668 2.92075 27.6627 3.47266 28.3992L5.87336 26.6001ZM5.625 25.8522H8.625V17.3333H5.625H2.625V25.8522H5.625Z" fill="#00FFF0" mask="url(#path-4-inside-2_12_960)"/>
<path d="M50.2955 32V8.72727H65.4318V12.2614H54.5114V18.5795H64.6477V22.1136H54.5114V28.4659H65.5227V32H50.2955ZM79.1707 20.6136V24H68.6934V20.6136H79.1707ZM91.2533 14.5455V17.7273H81.2192V14.5455H91.2533ZM83.6965 10.3636H87.8101V26.75C87.8101 27.303 87.8934 27.7273 88.0601 28.0227C88.2344 28.3106 88.4616 28.5076 88.7419 28.6136C89.0222 28.7197 89.3328 28.7727 89.6738 28.7727C89.9313 28.7727 90.1662 28.7538 90.3783 28.7159C90.598 28.678 90.7647 28.6439 90.8783 28.6136L91.5715 31.8295C91.3518 31.9053 91.0374 31.9886 90.6283 32.0795C90.2268 32.1705 89.7344 32.2235 89.151 32.2386C88.1207 32.2689 87.1927 32.1136 86.3669 31.7727C85.5412 31.4242 84.8859 30.8864 84.401 30.1591C83.9238 29.4318 83.6889 28.5227 83.6965 27.4318V10.3636ZM104.859 24.6591V14.5455H108.972V32H104.984V28.8977H104.802C104.408 29.875 103.76 30.6742 102.859 31.2955C101.965 31.9167 100.862 32.2273 99.5518 32.2273C98.4079 32.2273 97.3965 31.9735 96.5177 31.4659C95.6465 30.9508 94.9647 30.2045 94.4723 29.2273C93.9798 28.2424 93.7336 27.053 93.7336 25.6591V14.5455H97.8473V25.0227C97.8473 26.1288 98.1503 27.0076 98.7564 27.6591C99.3624 28.3106 100.158 28.6364 101.143 28.6364C101.749 28.6364 102.336 28.4886 102.904 28.1932C103.472 27.8977 103.938 27.4583 104.302 26.875C104.673 26.2841 104.859 25.5455 104.859 24.6591ZM120.958 14.5455V17.7273H110.924V14.5455H120.958ZM113.401 10.3636H117.515V26.75C117.515 27.303 117.598 27.7273 117.765 28.0227C117.939 28.3106 118.167 28.5076 118.447 28.6136C118.727 28.7197 119.038 28.7727 119.379 28.7727C119.636 28.7727 119.871 28.7538 120.083 28.7159C120.303 28.678 120.47 28.6439 120.583 28.6136L121.276 31.8295C121.057 31.9053 120.742 31.9886 120.333 32.0795C119.932 32.1705 119.439 32.2235 118.856 32.2386C117.826 32.2689 116.898 32.1136 116.072 31.7727C115.246 31.4242 114.591 30.8864 114.106 30.1591C113.629 29.4318 113.394 28.5227 113.401 27.4318V10.3636ZM130.865 32.3409C129.16 32.3409 127.683 31.9659 126.433 31.2159C125.183 30.4659 124.213 29.4167 123.524 28.0682C122.842 26.7197 122.501 25.1439 122.501 23.3409C122.501 21.5379 122.842 19.9583 123.524 18.6023C124.213 17.2462 125.183 16.1932 126.433 15.4432C127.683 14.6932 129.16 14.3182 130.865 14.3182C132.569 14.3182 134.047 14.6932 135.297 15.4432C136.547 16.1932 137.512 17.2462 138.194 18.6023C138.884 19.9583 139.228 21.5379 139.228 23.3409C139.228 25.1439 138.884 26.7197 138.194 28.0682C137.512 29.4167 136.547 30.4659 135.297 31.2159C134.047 31.9659 132.569 32.3409 130.865 32.3409ZM130.887 29.0455C131.812 29.0455 132.584 28.7917 133.206 28.2841C133.827 27.7689 134.289 27.0795 134.592 26.2159C134.903 25.3523 135.058 24.3902 135.058 23.3295C135.058 22.2614 134.903 21.2955 134.592 20.4318C134.289 19.5606 133.827 18.8674 133.206 18.3523C132.584 17.8371 131.812 17.5795 130.887 17.5795C129.941 17.5795 129.153 17.8371 128.524 18.3523C127.903 18.8674 127.437 19.5606 127.126 20.4318C126.823 21.2955 126.672 22.2614 126.672 23.3295C126.672 24.3902 126.823 25.3523 127.126 26.2159C127.437 27.0795 127.903 27.7689 128.524 28.2841C129.153 28.7917 129.941 29.0455 130.887 29.0455ZM141.76 32V14.5455H145.749V17.4545H145.93C146.249 16.447 146.794 15.6705 147.567 15.125C148.347 14.572 149.237 14.2955 150.237 14.2955C150.464 14.2955 150.718 14.3068 150.999 14.3295C151.286 14.3447 151.525 14.3712 151.714 14.4091V18.1932C151.54 18.1326 151.264 18.0795 150.885 18.0341C150.514 17.9811 150.154 17.9545 149.805 17.9545C149.055 17.9545 148.381 18.1174 147.783 18.4432C147.192 18.7614 146.726 19.2045 146.385 19.7727C146.044 20.3409 145.874 20.9962 145.874 21.7386V32H141.76Z" fill="white"/>
</svg>
