<svg width="40" height="40" viewBox="0 0 40 40" fill="none" xmlns="http://www.w3.org/2000/svg">
<path d="M35.5625 15L20 23.2998L4.43652 15L20 6.69922L35.5625 15Z" stroke="#49BBBD" stroke-width="3" stroke-linecap="round" stroke-linejoin="round"/>
<mask id="path-2-inside-1_190_166" fill="white">
<path d="M29.375 37.5V20L20 15"/>
</mask>
<path d="M26.375 37.5C26.375 39.1569 27.7181 40.5 29.375 40.5C31.0319 40.5 32.375 39.1569 32.375 37.5H29.375H26.375ZM29.375 20H32.375C32.375 18.8921 31.7644 17.8743 30.7868 17.3529L29.375 20ZM21.4118 12.3529C19.9498 11.5732 18.1326 12.1263 17.3529 13.5882C16.5732 15.0502 17.1263 16.8674 18.5882 17.6471L20 15L21.4118 12.3529ZM29.375 37.5H32.375V20H29.375H26.375V37.5H29.375ZM29.375 20L30.7868 17.3529L21.4118 12.3529L20 15L18.5882 17.6471L27.9632 22.6471L29.375 20Z" fill="#49BBBD" mask="url(#path-2-inside-1_190_166)"/>
<mask id="path-4-inside-2_190_166" fill="white">
<path d="M34.375 17.3334V25.8523C34.3755 26.1219 34.2884 26.3844 34.1266 26.6002C33.074 28.0009 28.6333 33.125 20 33.125C11.3667 33.125 6.92597 28.0009 5.87336 26.6002C5.71165 26.3844 5.62449 26.1219 5.625 25.8523V17.3334"/>
</mask>
<path d="M37.375 17.3334C37.375 15.6765 36.0319 14.3334 34.375 14.3334C32.7181 14.3334 31.375 15.6765 31.375 17.3334H34.375H37.375ZM34.375 25.8523H31.375L31.375 25.858L34.375 25.8523ZM34.1266 26.6002L36.5249 28.4025L36.5273 28.3993L34.1266 26.6002ZM5.87336 26.6002L3.47266 28.3993L3.47509 28.4025L5.87336 26.6002ZM5.625 25.8523L8.625 25.858V25.8523H5.625ZM8.625 17.3334C8.625 15.6765 7.28186 14.3334 5.625 14.3334C3.96815 14.3334 2.625 15.6765 2.625 17.3334H5.625H8.625ZM34.375 17.3334H31.375V25.8523H34.375H37.375V17.3334H34.375ZM34.375 25.8523L31.375 25.858C31.3743 25.477 31.4974 25.106 31.7259 24.8011L34.1266 26.6002L36.5273 28.3993C37.0793 27.6628 37.3768 26.7668 37.375 25.8465L34.375 25.8523ZM34.1266 26.6002L31.7284 24.7979C30.9565 25.8249 27.2986 30.125 20 30.125V33.125V36.125C29.968 36.125 35.1915 30.1768 36.5249 28.4025L34.1266 26.6002ZM20 33.125V30.125C12.7015 30.125 9.04346 25.8249 8.27164 24.7979L5.87336 26.6002L3.47509 28.4025C4.80848 30.1768 10.032 36.125 20 36.125V33.125ZM5.87336 26.6002L8.27407 24.8011C8.50256 25.106 8.62573 25.477 8.625 25.858L5.625 25.8523L2.62501 25.8465C2.62324 26.7668 2.92075 27.6628 3.47266 28.3993L5.87336 26.6002ZM5.625 25.8523H8.625V17.3334H5.625H2.625V25.8523H5.625Z" fill="#49BBBD" mask="url(#path-4-inside-2_190_166)"/>
</svg>
